<svg width="490" height="80" viewBox="0 0 490 80" fill="#172554" xmlns="http://www.w3.org/2000/svg">
  <!-- Background -->
  <rect width="490" height="80" fill="#172554"/>

  <!-- Cartoon Cityscape -->
  <g>
    <!-- Buildings -->
    <rect x="10" y="30" width="30" height="40" fill="#FF6347"/>
    <rect x="50" y="20" width="30" height="50" fill="#4682B4"/>
    <rect x="90" y="25" width="30" height="45" fill="#32CD32"/>


    
    <!-- Windows -->
    <rect x="15" y="35" width="5" height="5" fill="white"/>
    <rect x="25" y="35" width="5" height="5" fill="white"/>
    <rect x="15" y="45" width="5" height="5" fill="white"/>
    <rect x="25" y="45" width="5" height="5" fill="white"/>
    
    <rect x="55" y="25" width="5" height="5" fill="white"/>
    <rect x="65" y="25" width="5" height="5" fill="white"/>
    <rect x="55" y="35" width="5" height="5" fill="white"/>
    <rect x="65" y="35" width="5" height="5" fill="white"/>
    
    <rect x="95" y="30" width="5" height="5" fill="white"/>
    <rect x="105" y="30" width="5" height="5" fill="white"/>
    <rect x="95" y="40" width="5" height="5" fill="white"/>
    <rect x="105" y="40" width="5" height="5" fill="white"/>
  </g>

  <!-- Escape City Text -->
  <text x="150" y="55" font-family="Arial, Helvetica, sans-serif" font-size="50" fill="#22d3ee" font-weight="bold">Escape City</text>
</svg>
